<svg xmlns="http://www.w3.org/2000/svg" viewBox="-75 -75 150 150" image-rendering="optimizeSpeed">
	<rect x="0" y="0" width="50" height="50" fill="#ff0000" transform="rotate(0 0 0)" >
		<animateTransform attributeName="transform"
                          attributeType="XML"
                          type="rotate"
                          values="0 0 0; 90 0 0; 180 0 0; 270 0 0; 360 0 0; 360 0 0"
                          dur="16s"
						  keySplines="0.5 0 0.5 1 ; 0.5 0 0.5 1 ; 0.5 0 0.5 1 ; 0.5 0 0.5 1; 0 1 0 1 "
        				  keyTimes="0;0.1;0.2;0.3;0.4;1"
						  calcMode="spline"
                          repeatCount="indefinite"
						  additive="sum"
						  />
	</rect>
	<rect x="0" y="0" width="50" height="50" fill="#0000ff" transform="rotate(90 0 0)" >
		<animateTransform attributeName="transform"
							attributeType="XML"
							type="rotate"
							values="0 0 0; 90 0 0; 180 0 0; 270 0 0; 360 0 0"
							dur="2s"
							keySplines="0.5 0 0.5 1 ; 0.5 0 0.5 1 ; 0.5 0 0.5 1 ; 0.5 0 0.5 1"
							keyTimes="0;0.25;0.5;0.75;1"
							calcMode="spline"
							repeatCount="indefinite"
							additive="sum"
							/>
	</rect>
	<!--<rect x="50" y="50" width="50" height="50" fill="#808000" transform="rotate(270 50 50)" >

	</rect>
	<rect x="50" y="50" width="50" height="50" fill="#008000" transform="rotate(0 50 50)" >

	</rect>
	<rect x="50" y="50" width="50" height="50" fill="#ffff00" transform="rotate(90 50 50)" >

	</rect>
	<rect x="50" y="50" width="50" height="50" fill="#800080" transform="rotate(180 50 50)" >

	</rect>
	<rect x="50" y="50" width="50" height="50" fill="#ff8040" transform="rotate(270 50 50)" >

	</rect>
	<rect x="50" y="50" width="50" height="50" fill="#804000" transform="rotate(0 50 50)" >

	</rect>
	<rect x="50" y="50" width="50" height="50" fill="#8080ff" transform="rotate(90 50 50)" >

	</rect>
	<rect x="50" y="50" width="50" height="50" fill="#80ffff" transform="rotate(180 50 50)" >

	</rect>
	<rect x="50" y="50" width="50" height="50" fill="#00ff80" transform="rotate(270 50 50)" >

	</rect>
	<rect x="50" y="50" width="50" height="50" fill="#c0c0c0" transform="rotate(0 50 50)" >

	</rect>
	<rect x="50" y="50" width="50" height="50" fill="#ffffff" transform="rotate(90 50 50)" >

	</rect>
	<rect x="50" y="50" width="50" height="50" fill="#8000ff" transform="rotate(180 50 50)" >

	</rect>
	<rect x="50" y="50" width="50" height="50" fill="#000000" transform="rotate(270 50 50)" >

	</rect>
	<rect x="50" y="50" width="50" height="50" fill="#ff0080" transform="rotate(0 50 50)" >

	</rect> -->
</svg>
